<svg width="32" height="32" viewBox="0 0 32 32" fill="none" xmlns="http://www.w3.org/2000/svg">
<path d="M19.288 12.1635C19.288 13.9796 17.8157 15.4519 15.9995 15.4519C14.1834 15.4519 12.7111 13.9796 12.7111 12.1635C12.7111 10.3473 14.1834 8.875 15.9995 8.875C17.8157 8.875 19.288 10.3473 19.288 12.1635Z" stroke="black"/>
<path d="M15.9995 23.125C19.257 23.125 21.1338 22.2848 22.0044 21.7439C22.4118 21.4909 22.6125 21.0249 22.5711 20.5422C22.5145 19.883 22.2842 19.2246 22.0497 18.7023C21.7417 18.0166 21.0289 17.6442 20.2773 17.6442H11.7218C10.9701 17.6442 10.2573 18.0166 9.94939 18.7023C9.71487 19.2245 9.48453 19.883 9.42794 20.5422C9.38651 21.0249 9.5873 21.4909 9.99469 21.7439C10.8653 22.2848 12.7421 23.125 15.9995 23.125Z" stroke="black"/>
<rect x="0.5" y="0.5" width="31" height="31" rx="15.5" stroke="black"/>
</svg>
