<svg width="18" height="20" viewBox="0 0 18 20" fill="none" xmlns="http://www.w3.org/2000/svg">
<path d="M11.702 16.6852C11.702 18.2398 10.4092 19.5 8.81441 19.5C7.21963 19.5 5.92681 18.2398 5.92681 16.6852H11.702Z" stroke="black"/>
<path d="M15.8284 16.6852H2.17164C1.33498 16.6852 0.928717 16.0021 1.01026 15.2236C1.02967 15.0383 1.10624 14.8651 1.19919 14.7036L2.46866 12.4976C2.74878 12.0108 2.92325 11.4705 2.98073 10.9119L3.2871 7.93389C3.3143 7.66949 3.35303 7.40747 3.43005 7.15308C3.70522 6.24427 4.5981 3.96741 6.83431 3.02724V2.61111C6.83431 1.44518 7.80393 0.5 9.00001 0.5C10.1961 0.5 11.1657 1.44518 11.1657 2.61111V3.02725C13.3271 3.93595 14.2335 6.09334 14.5402 7.05732C14.6411 7.37422 14.685 7.7033 14.7108 8.03486L14.9259 10.8057C14.9746 11.4326 15.1704 12.0391 15.4974 12.5762L16.7817 14.6855C16.8873 14.8589 16.9738 15.0467 16.9923 15.2487C17.0625 16.0167 16.656 16.6852 15.8284 16.6852Z" stroke="black"/>
</svg>
