<svg width="18" height="22" viewBox="0 0 18 22" fill="none" xmlns="http://www.w3.org/2000/svg">
<path d="M13.5 3.69231L14.5 3.69231C15.6046 3.69231 16.5 4.58774 16.5 5.69231L16.5 18.5C16.5 19.6046 15.6046 20.5 14.5 20.5L3.50002 20.5C2.39545 20.5 1.50002 19.6046 1.50002 18.5L1.5 5.69231C1.5 4.58774 2.39543 3.69231 3.5 3.69231H4.5M5.25002 11.7308L11.25 11.7308M5.25002 15.3846H8.25002M9.00002 1.5C9.47021 1.5 9.88987 1.71079 10.1649 2.04067C10.5186 2.46487 10.9477 2.96154 11.5 2.96154H12.5C13.0523 2.96154 13.5 3.40925 13.5 3.96154V4.88462C13.5 5.4369 13.0523 5.88462 12.5 5.88462L5.50002 5.88462C4.94773 5.88462 4.50002 5.4369 4.50002 4.88462V3.96154C4.50002 3.40925 4.94773 2.96154 5.50002 2.96154L6.50002 2.96154C7.0523 2.96154 7.48148 2.46487 7.83514 2.04067C8.11016 1.71079 8.52982 1.5 9.00002 1.5Z" stroke="white" stroke-width="1.5" stroke-linecap="round"/>
</svg>
