<svg width="18" height="18" viewBox="0 0 18 18" fill="none" xmlns="http://www.w3.org/2000/svg">
<path d="M8.99219 0.490235C4.16211 0.488282 0.25 4.39844 0.25 9.22461C0.25 13.041 2.69727 16.2852 6.10547 17.4766C6.56445 17.5918 6.49414 17.2656 6.49414 17.043V15.5293C3.84375 15.8398 3.73633 14.0859 3.55859 13.793C3.19922 13.1797 2.34961 13.0234 2.60352 12.7305C3.20703 12.4199 3.82227 12.8086 4.53516 13.8613C5.05078 14.625 6.05664 14.4961 6.56641 14.3691C6.67773 13.9102 6.91602 13.5 7.24414 13.1816C4.49805 12.6895 3.35352 11.0137 3.35352 9.02148C3.35352 8.05469 3.67188 7.16602 4.29688 6.44922C3.89844 5.26758 4.33398 4.25586 4.39258 4.10547C5.52734 4.00391 6.70703 4.91797 6.79883 4.99024C7.44336 4.81641 8.17969 4.72461 9.00391 4.72461C9.83203 4.72461 10.5703 4.82031 11.2207 4.99609C11.4414 4.82813 12.5352 4.04297 13.5898 4.13867C13.6465 4.28906 14.0723 5.27734 13.6973 6.44336C14.3301 7.16211 14.6523 8.0586 14.6523 9.02734C14.6523 11.0234 13.5 12.7012 10.7461 13.1855C10.982 13.4175 11.1693 13.6942 11.297 13.9993C11.4248 14.3045 11.4905 14.6321 11.4902 14.9629V17.1602C11.5059 17.3359 11.4902 17.5098 11.7832 17.5098C15.2422 16.3438 17.7324 13.0762 17.7324 9.22656C17.7324 4.39844 13.8184 0.490235 8.99219 0.490235Z" fill="black"/>
</svg>
