<svg width="16" height="16" viewBox="0 0 16 16" fill="none" xmlns="http://www.w3.org/2000/svg">
<path d="M3.61538 12.9327V13.4327H3.6154L3.61538 12.9327ZM3.61538 7.45198V7.95198L3.6154 7.95198L3.61538 7.45198ZM3.75967 12.9327L3.75968 13.4327H3.75969L3.75967 12.9327ZM3.75956 7.45198L3.75958 7.95198H3.75958L3.75956 7.45198ZM12.3846 12.9327L12.3846 13.4327H12.3846V12.9327ZM12.3846 7.45198L12.3846 7.95198H12.3846V7.45198ZM12.2403 12.9327L12.2403 13.4327H12.2403L12.2403 12.9327ZM12.2404 7.45198L12.2404 7.95198L12.2404 7.45198ZM13.3327 13.2327C13.4984 13.0118 13.4536 12.6984 13.2327 12.5327C13.0118 12.367 12.6984 12.4118 12.5327 12.6327L13.3327 13.2327ZM11.9635 14.225L11.5635 13.925L11.9635 14.225ZM8 14.625C7.72386 14.625 7.5 14.8489 7.5 15.125C7.5 15.4011 7.72386 15.625 8 15.625V14.625ZM3.01923 6.26087C3.01923 3.57068 5.24093 1.375 8 1.375V0.375C4.70518 0.375 2.01923 3.002 2.01923 6.26087H3.01923ZM8 1.375C10.7591 1.375 12.9808 3.57068 12.9808 6.26087H13.9808C13.9808 3.002 11.2948 0.375 8 0.375V1.375ZM12.9808 6.26087V7.78687H13.9808V6.26087H12.9808ZM2.01923 6.26087V7.78687H3.01923V6.26087H2.01923ZM3.61538 12.4327C2.37805 12.4327 1.375 11.4296 1.375 10.1923H0.375C0.375 11.9819 1.82577 13.4327 3.61538 13.4327V12.4327ZM1.375 10.1923C1.375 8.95503 2.37805 7.95198 3.61538 7.95198V6.95198C1.82577 6.95198 0.375 8.40273 0.375 10.1923H1.375ZM3.6154 7.95198L3.75958 7.95198L3.75954 6.95198L3.61537 6.95198L3.6154 7.95198ZM4.75962 8.95198V11.4327H5.75962V8.95198H4.75962ZM3.75965 12.4327L3.61537 12.4327L3.6154 13.4327L3.75968 13.4327L3.75965 12.4327ZM4.75962 11.4327C4.75962 11.985 4.31192 12.4327 3.75965 12.4327L3.75969 13.4327C4.86423 13.4326 5.75962 12.5372 5.75962 11.4327H4.75962ZM3.75958 7.95198C4.31188 7.95196 4.75962 8.39968 4.75962 8.95198H5.75962C5.75962 7.84738 4.86414 6.95194 3.75954 6.95198L3.75958 7.95198ZM12.3846 13.4327C14.1742 13.4327 15.625 11.9819 15.625 10.1923H14.625C14.625 11.4296 13.622 12.4327 12.3846 12.4327V13.4327ZM15.625 10.1923C15.625 8.40273 14.1742 6.95198 12.3846 6.95198V7.95198C13.622 7.95198 14.625 8.95503 14.625 10.1923H15.625ZM12.3846 6.95198L12.2405 6.95198L12.2404 7.95198L12.3846 7.95198L12.3846 6.95198ZM10.2404 8.95198V11.4327H11.2404V8.95198H10.2404ZM12.2403 13.4327L12.3846 13.4327L12.3846 12.4327L12.2403 12.4327L12.2403 13.4327ZM10.2404 11.4327C10.2404 12.5372 11.1358 13.4326 12.2403 13.4327L12.2403 12.4327C11.6881 12.4327 11.2404 11.985 11.2404 11.4327H10.2404ZM12.2405 6.95198C11.1359 6.95194 10.2404 7.84738 10.2404 8.95198H11.2404C11.2404 8.39968 11.6881 7.95196 12.2404 7.95198L12.2405 6.95198ZM12.5327 12.6327L11.5635 13.925L12.3635 14.525L13.3327 13.2327L12.5327 12.6327ZM10.1635 14.625H8V15.625H10.1635V14.625ZM11.5635 13.925C11.233 14.3657 10.7143 14.625 10.1635 14.625V15.625C11.029 15.625 11.8441 15.2175 12.3635 14.525L11.5635 13.925Z" fill="black"/>
</svg>
