<svg width="16" height="16" viewBox="0 0 16 16" fill="none" xmlns="http://www.w3.org/2000/svg">
<path d="M0.875 8.3928H1.375H0.875ZM0.875 14.0329H0.375H0.875ZM14.0288 15.125V14.625V15.125ZM1.97115 15.125V15.625H1.97115L1.97115 15.125ZM15.125 8.39283H14.625H15.125ZM15.125 14.0329H15.625H15.125ZM14.545 6.91282L14.1779 7.2523L14.545 6.91282ZM9.61227 1.57916L9.24519 1.91864V1.91864L9.61227 1.57916ZM6.38773 1.57915L6.75481 1.91864V1.91864L6.38773 1.57915ZM1.45504 6.91279L1.08796 6.5733H1.08796L1.45504 6.91279ZM5.80769 9.66458H6.30769H5.80769ZM5.80769 14.579L5.30769 14.579L5.80769 14.579ZM9.64423 15.125V14.625V15.125ZM6.35577 15.125V15.625V15.125ZM10.1923 9.66459H10.6923H10.1923ZM10.1923 14.579H9.69231H10.1923ZM9.64423 9.11855L9.64423 9.61855L9.64423 9.11855ZM6.35577 9.11854L6.35577 9.61854H6.35577L6.35577 9.11854ZM0.375 8.3928L0.375 14.0329H1.375L1.375 8.3928H0.375ZM14.0288 14.625L1.97115 14.625L1.97115 15.625L14.0288 15.625V14.625ZM14.625 8.39283V14.0329H15.625V8.39283H14.625ZM14.912 6.57333L9.97935 1.23967L9.24519 1.91864L14.1779 7.2523L14.912 6.57333ZM6.02065 1.23966L1.08796 6.5733L1.82212 7.25228L6.75481 1.91864L6.02065 1.23966ZM9.97935 1.23967C8.91313 0.0867803 7.08687 0.086775 6.02065 1.23966L6.75481 1.91864C7.42517 1.19379 8.57483 1.19379 9.24519 1.91864L9.97935 1.23967ZM15.625 8.39283C15.625 7.71834 15.3703 7.06885 14.912 6.57333L14.1779 7.2523C14.4656 7.56338 14.625 7.97054 14.625 8.39283H15.625ZM1.375 8.3928C1.375 7.97051 1.53443 7.56335 1.82212 7.25228L1.08796 6.5733C0.629686 7.06882 0.375 7.71831 0.375 8.3928H1.375ZM0.375 14.0329C0.375 14.914 1.09138 15.625 1.97115 15.625L1.97115 14.625C1.64015 14.625 1.375 14.3582 1.375 14.0329H0.375ZM14.0288 15.625C14.9086 15.625 15.625 14.9139 15.625 14.0329H14.625C14.625 14.3582 14.3598 14.625 14.0288 14.625V15.625ZM5.30769 9.66458L5.30769 14.579L6.30769 14.579L6.30769 9.66458H5.30769ZM9.64423 14.625L6.35577 14.625V15.625L9.64423 15.625V14.625ZM9.69231 9.66459L9.69231 14.579H10.6923L10.6923 9.66459H9.69231ZM9.64423 8.61855L6.35577 8.61854L6.35577 9.61854L9.64423 9.61855L9.64423 8.61855ZM10.6923 9.66459C10.6923 9.08513 10.2213 8.61855 9.64423 8.61855L9.64423 9.61855C9.67254 9.61855 9.69231 9.64092 9.69231 9.66459H10.6923ZM6.30769 9.66458C6.30769 9.6409 6.32746 9.61854 6.35577 9.61854L6.35577 8.61854C5.77869 8.61854 5.30769 9.08512 5.30769 9.66458H6.30769ZM5.30769 14.579C5.30769 15.1584 5.77869 15.625 6.35577 15.625V14.625C6.32746 14.625 6.30769 14.6026 6.30769 14.579L5.30769 14.579ZM9.64423 15.625C10.2213 15.625 10.6923 15.1584 10.6923 14.579H9.69231C9.69231 14.6026 9.67254 14.625 9.64423 14.625V15.625Z" fill="black"/>
</svg>
