<svg width="16" height="22" viewBox="0 0 16 22" fill="none" xmlns="http://www.w3.org/2000/svg">
<path fill-rule="evenodd" clip-rule="evenodd" d="M11.7782 0.927444C11.9291 1.01692 11.9978 1.19906 11.9436 1.36592L9.36401 9.30324H14.75C14.8993 9.30324 15.0344 9.39185 15.0939 9.52881C15.1535 9.66578 15.126 9.825 15.0241 9.93415L4.68716 21.0059C4.56667 21.135 4.3725 21.1625 4.22089 21.072C4.06929 20.9816 4.00131 20.7976 4.05767 20.6303L6.66637 12.8863C6.73249 12.69 6.94519 12.5845 7.14146 12.6506C7.33773 12.7167 7.44324 12.9294 7.37712 13.1257L5.32173 19.2272L13.8869 10.0532H8.84783C8.72779 10.0532 8.615 9.99577 8.54445 9.89865C8.47389 9.80153 8.45409 9.6765 8.4912 9.56234L10.7143 2.7219L1.36913 12.631H4.9674C5.17451 12.631 5.3424 12.7989 5.3424 13.006C5.3424 13.2131 5.17451 13.381 4.9674 13.381H0.500009C0.350331 13.381 0.214989 13.292 0.155692 13.1546C0.0963946 13.0171 0.1245 12.8576 0.227194 12.7487L11.3142 0.992723C11.4345 0.865088 11.6273 0.83797 11.7782 0.927444Z" fill="black"/>
</svg>
