<svg width="202" height="36" viewBox="0 0 202 36" fill="none" xmlns="http://www.w3.org/2000/svg">
<path d="M19.5317 1.45161H25.7376V35.3226H19.5317V32.4677C17.7036 34.8226 15.1058 36 11.7383 36C8.49902 36 5.72481 34.7742 3.41565 32.3226C1.13855 29.8387 0 26.8065 0 23.2258C0 19.6452 1.13855 16.629 3.41565 14.1774C5.72481 11.6935 8.49902 10.4516 11.7383 10.4516C15.1058 10.4516 17.7036 11.629 19.5317 13.9839V1.45161ZM8.08209 28.1613C9.36496 29.4194 10.9686 30.0484 12.8929 30.0484C14.8172 30.0484 16.4047 29.4194 17.6555 28.1613C18.9063 26.871 19.5317 25.2258 19.5317 23.2258C19.5317 21.2258 18.9063 19.5968 17.6555 18.3387C16.4047 17.0484 14.8172 16.4032 12.8929 16.4032C10.9686 16.4032 9.36496 17.0484 8.08209 18.3387C6.83129 19.5968 6.20589 21.2258 6.20589 23.2258C6.20589 25.2258 6.83129 26.871 8.08209 28.1613Z" fill="#4E46B4"/>
<path d="M53.1097 32.3226C50.6402 34.7742 47.6255 36 44.0655 36C40.5055 36 37.4908 34.7742 35.0213 32.3226C32.5838 29.8387 31.3651 26.8065 31.3651 23.2258C31.3651 19.6452 32.5838 16.629 35.0213 14.1774C37.4908 11.6935 40.5055 10.4516 44.0655 10.4516C47.6255 10.4516 50.6402 11.6935 53.1097 14.1774C55.5793 16.629 56.814 19.6452 56.814 23.2258C56.814 26.8065 55.5793 29.8387 53.1097 32.3226ZM39.3991 28.0161C40.6499 29.2742 42.2053 29.9032 44.0655 29.9032C45.9257 29.9032 47.4811 29.2742 48.7319 28.0161C49.9827 26.7581 50.6082 25.1613 50.6082 23.2258C50.6082 21.2903 49.9827 19.6936 48.7319 18.4355C47.4811 17.1774 45.9257 16.5484 44.0655 16.5484C42.2053 16.5484 40.6499 17.1774 39.3991 18.4355C38.1803 19.6936 37.571 21.2903 37.571 23.2258C37.571 25.1613 38.1803 26.7581 39.3991 28.0161Z" fill="#4E46B4"/>
<path d="M78.258 11.129H84.4639V35.3226H78.258V32.6129C76.7507 34.871 74.3613 36 71.09 36C68.4601 36 66.2792 35.1129 64.5473 33.3387C62.8475 31.5645 61.9976 29.1129 61.9976 25.9839V11.129H68.2035V25.2097C68.2035 26.8226 68.6365 28.0645 69.5024 28.9355C70.3684 29.7742 71.523 30.1936 72.9662 30.1936C74.5698 30.1936 75.8527 29.6936 76.8148 28.6936C77.777 27.6936 78.258 26.1936 78.258 24.1936V11.129Z" fill="#4E46B4"/>
<path d="M105.35 10.4516C108.589 10.4516 111.347 11.6935 113.624 14.1774C115.933 16.629 117.088 19.6452 117.088 23.2258C117.088 26.8065 115.933 29.8387 113.624 32.3226C111.347 34.7742 108.589 36 105.35 36C101.982 36 99.3844 34.8226 97.5564 32.4677V35.3226H91.3505V1.45161H97.5564V13.9839C99.3844 11.629 101.982 10.4516 105.35 10.4516ZM99.4326 28.1613C100.683 29.4194 102.271 30.0484 104.195 30.0484C106.12 30.0484 107.707 29.4194 108.958 28.1613C110.241 26.871 110.882 25.2258 110.882 23.2258C110.882 21.2258 110.241 19.5968 108.958 18.3387C107.707 17.0484 106.12 16.4032 104.195 16.4032C102.271 16.4032 100.683 17.0484 99.4326 18.3387C98.1818 19.5968 97.5564 21.2258 97.5564 23.2258C97.5564 25.2258 98.1818 26.871 99.4326 28.1613Z" fill="#4E46B4"/>
<path d="M136.667 10.4516C139.906 10.4516 142.664 11.6935 144.941 14.1774C147.25 16.629 148.405 19.6452 148.405 23.2258C148.405 26.8065 147.25 29.8387 144.941 32.3226C142.664 34.7742 139.906 36 136.667 36C133.299 36 130.701 34.8226 128.873 32.4677V35.3226H122.667V1.45161H128.873V13.9839C130.701 11.629 133.299 10.4516 136.667 10.4516ZM130.75 28.1613C132 29.4194 133.588 30.0484 135.512 30.0484C137.436 30.0484 139.024 29.4194 140.275 28.1613C141.558 26.871 142.199 25.2258 142.199 23.2258C142.199 21.2258 141.558 19.5968 140.275 18.3387C139.024 17.0484 137.436 16.4032 135.512 16.4032C133.588 16.4032 132 17.0484 130.75 18.3387C129.499 19.5968 128.873 21.2258 128.873 23.2258C128.873 25.2258 129.499 26.871 130.75 28.1613Z" fill="#4E46B4"/>
<path d="M153.984 35.3226V0H160.19V35.3226H153.984Z" fill="#4E46B4"/>
<path d="M172.317 25.7903C173.151 28.8226 175.412 30.3387 179.1 30.3387C181.473 30.3387 183.269 29.5323 184.488 27.9194L189.491 30.8226C187.118 34.2742 183.622 36 179.004 36C175.027 36 171.836 34.7903 169.43 32.371C167.025 29.9516 165.822 26.9032 165.822 23.2258C165.822 19.5806 167.009 16.5484 169.382 14.129C171.756 11.6774 174.802 10.4516 178.523 10.4516C182.051 10.4516 184.953 11.6774 187.23 14.129C189.539 16.5806 190.694 19.6129 190.694 23.2258C190.694 24.0323 190.614 24.8871 190.453 25.7903H172.317ZM172.221 20.9516H184.488C184.135 19.3065 183.398 18.0806 182.275 17.2742C181.185 16.4677 179.934 16.0645 178.523 16.0645C176.855 16.0645 175.476 16.5 174.385 17.371C173.295 18.2097 172.573 19.4032 172.221 20.9516Z" fill="#4E46B4"/>
<path d="M200.797 34.7419C199.996 35.5484 199.033 35.9516 197.911 35.9516C196.788 35.9516 195.826 35.5484 195.024 34.7419C194.223 33.9355 193.822 32.9677 193.822 31.8387C193.822 30.7097 194.223 29.7419 195.024 28.9355C195.826 28.129 196.788 27.7258 197.911 27.7258C199.033 27.7258 199.996 28.129 200.797 28.9355C201.599 29.7419 202 30.7097 202 31.8387C202 32.9677 201.599 33.9355 200.797 34.7419Z" fill="#4E46B4"/>
</svg>
