<svg width="26" height="24" viewBox="0 0 26 24" fill="none" xmlns="http://www.w3.org/2000/svg">
<path d="M12.86 0H16.9461V22.5806H12.86V20.6774C11.6563 22.2473 9.94591 23.0323 7.72867 23.0323C5.59589 23.0323 3.76931 22.2151 2.24891 20.5806C0.749638 18.9247 0 16.9032 0 14.5161C0 12.129 0.749638 10.1183 2.24891 8.48387C3.76931 6.82796 5.59589 6 7.72867 6C9.94591 6 11.6563 6.78495 12.86 8.35484V0ZM5.32138 17.8065C6.16604 18.6452 7.22187 19.0645 8.48886 19.0645C9.75586 19.0645 10.8011 18.6452 11.6247 17.8065C12.4482 16.9462 12.86 15.8495 12.86 14.5161C12.86 13.1828 12.4482 12.0968 11.6247 11.2581C10.8011 10.3979 9.75586 9.96774 8.48886 9.96774C7.22187 9.96774 6.16604 10.3979 5.32138 11.2581C4.49783 12.0968 4.08606 13.1828 4.08606 14.5161C4.08606 15.8495 4.49783 16.9462 5.32138 17.8065Z" fill="#8490F9"/>
<path d="M24.9396 21.3871C24.4116 21.9247 23.7781 22.1936 23.0391 22.1936C22.3 22.1936 21.6665 21.9247 21.1386 21.3871C20.6107 20.8495 20.3467 20.2043 20.3467 19.4516C20.3467 18.6989 20.6107 18.0538 21.1386 17.5161C21.6665 16.9785 22.3 16.7097 23.0391 16.7097C23.7781 16.7097 24.4116 16.9785 24.9396 17.5161C25.4675 18.0538 25.7314 18.6989 25.7314 19.4516C25.7314 20.2043 25.4675 20.8495 24.9396 21.3871Z" fill="#8490F9"/>
<path d="M7.72867 22.5323C5.74297 22.5323 4.04761 21.779 2.61732 20.2426C1.20881 18.6857 0.5 16.7873 0.5 14.5161C0.5 12.2438 1.20949 10.3566 2.61737 8.82187C4.04881 7.26292 5.74428 6.5 7.72867 6.5C9.81188 6.5 11.3665 7.22869 12.4632 8.65907L13.36 9.82874V8.35484V0.5H16.4461V22.0806H13.36V20.6774V19.2035L12.4632 20.3732C11.3665 21.8036 9.81188 22.5323 7.72867 22.5323ZM4.96021 18.1522L4.96009 18.1523L4.96908 18.1613C5.91388 19.0994 7.09929 19.5645 8.48886 19.5645C9.87846 19.5645 11.0561 19.0992 11.9814 18.1568L11.9815 18.1568L11.9858 18.1522C12.9094 17.1875 13.36 15.9616 13.36 14.5161C13.36 13.072 12.9101 11.8547 11.9837 10.91C11.0596 9.94599 9.88141 9.46774 8.48886 9.46774C7.09531 9.46774 5.90851 9.94648 4.96461 10.9078C4.03669 11.8528 3.58606 13.0709 3.58606 14.5161C3.58606 15.9616 4.03663 17.1875 4.96021 18.1522ZM24.5828 21.0368C24.1468 21.4808 23.641 21.6936 23.0391 21.6936C22.4371 21.6936 21.9313 21.4808 21.4953 21.0368C21.0591 20.5925 20.8467 20.0731 20.8467 19.4516C20.8467 18.8301 21.0591 18.3107 21.4953 17.8664C21.9313 17.4225 22.4371 17.2097 23.0391 17.2097C23.641 17.2097 24.1468 17.4225 24.5828 17.8664C25.019 18.3107 25.2314 18.8301 25.2314 19.4516C25.2314 20.0731 25.019 20.5925 24.5828 21.0368Z" stroke="#4E46B4" stroke-opacity="0.12"/>
</svg>
