<svg width="16" height="16" viewBox="0 0 16 16" fill="none" xmlns="http://www.w3.org/2000/svg">
<path d="M13.4808 4.16346C14.3889 4.16346 15.125 3.42731 15.125 2.51923C15.125 1.61115 14.3889 0.875 13.4808 0.875C12.5727 0.875 11.8365 1.61115 11.8365 2.51923M13.4808 4.16346C12.5727 4.16346 11.8365 3.42731 11.8365 2.51923M13.4808 4.16346V11.8365M11.8365 2.51923H4.16346M11.8365 13.4808C11.8365 14.3889 12.5727 15.125 13.4808 15.125C14.3889 15.125 15.125 14.3889 15.125 13.4808C15.125 12.5727 14.3889 11.8365 13.4808 11.8365M11.8365 13.4808C11.8365 12.5727 12.5727 11.8365 13.4808 11.8365M11.8365 13.4808H4.16346M4.16346 2.51923C4.16346 3.42731 3.42731 4.16346 2.51923 4.16346M4.16346 2.51923C4.16346 1.61115 3.42731 0.875 2.51923 0.875C1.61115 0.875 0.875 1.61115 0.875 2.51923C0.875 3.42731 1.61115 4.16346 2.51923 4.16346M2.51923 4.16346V11.8365M4.16346 13.4808C4.16346 14.3889 3.42731 15.125 2.51923 15.125C1.61115 15.125 0.875 14.3889 0.875 13.4808C0.875 12.5727 1.61115 11.8365 2.51923 11.8365M4.16346 13.4808C4.16346 12.5727 3.42731 11.8365 2.51923 11.8365" stroke="black" stroke-linecap="round"/>
</svg>
