<svg width="16" height="16" viewBox="0 0 16 16" fill="none" xmlns="http://www.w3.org/2000/svg">
<path d="M15.125 8C15.125 9.40919 14.7071 10.7867 13.9242 11.9584C13.1413 13.1301 12.0285 14.0434 10.7266 14.5826C9.4247 15.1219 7.9921 15.263 6.60999 14.9881C5.22787 14.7132 3.95832 14.0346 2.96187 13.0381C1.96542 12.0417 1.28683 10.7721 1.01191 9.39002C0.736988 8.0079 0.878087 6.5753 1.41736 5.27338C1.95664 3.97146 2.86987 2.85868 4.04157 2.07578C5.21327 1.29287 6.59081 0.875 8 0.875M15.125 8H8L8 0.875M15.125 8C15.125 7.53552 15.0796 7.06995 14.9881 6.60998C14.7132 5.22786 14.0346 3.95831 13.0381 2.96186C12.0417 1.96541 10.7721 1.28682 9.39002 1.0119C8.93004 0.920404 8.46448 0.874996 8 0.875" stroke="black"/>
</svg>
