<svg width="16" height="16" viewBox="0 0 16 16" fill="none" xmlns="http://www.w3.org/2000/svg">
<path d="M13.2067 12.3846H13.625C14.4534 12.3846 15.125 11.7131 15.125 10.8846V6.75964C15.125 5.93122 14.4534 5.25964 13.625 5.25964H2.375C1.54657 5.25964 0.875 5.93122 0.875 6.75964V10.8846C0.875 11.7131 1.54657 12.3846 2.375 12.3846H2.79327M2.51924 5.25962V2.375C2.51924 1.54657 3.19081 0.875 4.01924 0.875H11.9808C12.8092 0.875 13.4808 1.54657 13.4808 2.375V5.25962M12.9327 11.1442V13.625C12.9327 14.4534 12.2611 15.125 11.4327 15.125H4.56732C3.7389 15.125 3.06732 14.4534 3.06732 13.625V11.1442C3.06732 10.3158 3.73889 9.6442 4.56732 9.6442H11.4327C12.2611 9.6442 12.9327 10.3158 12.9327 11.1442Z" stroke="black"/>
</svg>
