<svg width="16" height="16" viewBox="0 0 16 16" fill="none" xmlns="http://www.w3.org/2000/svg">
<path d="M4.71154 3.06729V4.71152M10.7404 9.64421C10.7404 11.1577 9.51347 12.3846 8 12.3846C6.48653 12.3846 5.25961 11.1577 5.25961 9.64421C5.25961 8.13074 6.48653 6.90383 8 6.90383C9.51347 6.90383 10.7404 8.13074 10.7404 9.64421ZM3.875 15.125L12.125 15.125C13.7819 15.125 15.125 13.7818 15.125 12.125V5.40609C15.125 4.61044 14.8089 3.84737 14.2463 3.28476L12.7152 1.75367C12.1526 1.19107 11.3895 0.874999 10.5939 0.875L3.875 0.87501C2.21814 0.875012 0.875 2.21816 0.875 3.87501L0.875 12.125C0.875 13.7818 2.21815 15.125 3.875 15.125Z" stroke="black" stroke-linecap="round"/>
</svg>
