<svg width="14" height="16" viewBox="0 0 14 16" fill="none" xmlns="http://www.w3.org/2000/svg">
<path d="M1.37502 4.71154L1.02609 4.35342L0.875019 4.50062L0.875019 4.71154L1.37502 4.71154ZM5.31251 0.875V0.375H5.1092L4.96358 0.516886L5.31251 0.875ZM12.625 3.06731L12.125 3.06731L12.125 3.06731L12.625 3.06731ZM12.625 12.9327L13.125 12.9327L13.125 12.9327L12.625 12.9327ZM1.375 12.9327L1.875 12.9327L1.875 12.9327L1.375 12.9327ZM5.87499 5.25962V5.75962H6.37499V5.25962H5.87499ZM1.37502 5.25962L0.875017 5.25961L0.875017 5.25961L1.37502 5.25962ZM4.75002 8.59616C4.47387 8.59616 4.25002 8.82002 4.25002 9.09616C4.25002 9.3723 4.47387 9.59616 4.75002 9.59616V8.59616ZM9.25001 9.59616C9.52615 9.59616 9.75001 9.3723 9.75001 9.09616C9.75001 8.82002 9.52615 8.59616 9.25001 8.59616V9.59616ZM4.75002 11.3365C4.47387 11.3365 4.25002 11.5604 4.25002 11.8365C4.25002 12.1127 4.47387 12.3365 4.75002 12.3365V11.3365ZM7.00001 12.3365C7.27615 12.3365 7.50001 12.1127 7.50001 11.8365C7.50001 11.5604 7.27615 11.3365 7.00001 11.3365V12.3365ZM1.72395 5.06965L5.66144 1.23311L4.96358 0.516886L1.02609 4.35342L1.72395 5.06965ZM3.625 15.625H10.375V14.625H3.625V15.625ZM12.125 3.06731L12.125 12.9327L13.125 12.9327L13.125 3.06731L12.125 3.06731ZM3.625 14.625C2.64618 14.625 1.875 13.8552 1.875 12.9327L0.875 12.9327C0.874996 14.4318 2.11853 15.625 3.625 15.625V14.625ZM10.375 15.625C11.8815 15.625 13.125 14.4318 13.125 12.9327H12.125C12.125 13.8552 11.3538 14.625 10.375 14.625V15.625ZM10.375 1.375C11.3538 1.375 12.125 2.14484 12.125 3.06731H13.125C13.125 1.56822 11.8815 0.375 10.375 0.375V1.375ZM5.31251 1.375H5.87499V0.375H5.31251V1.375ZM5.87499 1.375H10.375V0.375H5.87499V1.375ZM0.875019 4.71154L0.875017 5.25961L1.87502 5.25962L1.87502 4.71154L0.875019 4.71154ZM0.875017 5.25961L0.875 12.9327L1.875 12.9327L1.87502 5.25962L0.875017 5.25961ZM5.37499 0.875V5.25962H6.37499V0.875H5.37499ZM5.87499 4.75962H1.37502V5.75962H5.87499V4.75962ZM4.75002 9.59616H9.25001V8.59616H4.75002V9.59616ZM4.75002 12.3365H7.00001V11.3365H4.75002V12.3365Z" fill="black"/>
</svg>
